<svg width="52" height="52" viewBox="0 0 52 52" fill="none" xmlns="http://www.w3.org/2000/svg">
<path d="M31 26C31 33.0581 29.5674 39.3986 27.298 43.9376C24.9986 48.5363 22.007 51 19 51C15.993 51 13.0014 48.5363 10.702 43.9376C8.43256 39.3986 7 33.0581 7 26C7 18.9419 8.43256 12.6014 10.702 8.06244C13.0014 3.46367 15.993 1 19 1C22.007 1 24.9986 3.46367 27.298 8.06244C29.5674 12.6014 31 18.9419 31 26Z" stroke="#FFB106" stroke-width="2"/>
<path d="M38 26C38 33.0581 36.5674 39.3986 34.298 43.9376C31.9986 48.5363 29.007 51 26 51C22.993 51 20.0014 48.5363 17.702 43.9376C15.4326 39.3986 14 33.0581 14 26C14 18.9419 15.4326 12.6014 17.702 8.06244C20.0014 3.46367 22.993 1 26 1C29.007 1 31.9986 3.46367 34.298 8.06244C36.5674 12.6014 38 18.9419 38 26Z" stroke="#FFB106" stroke-width="2"/>
<path d="M45 26C45 33.0581 43.5674 39.3986 41.298 43.9376C38.9986 48.5363 36.007 51 33 51C29.993 51 27.0014 48.5363 24.702 43.9376C22.4326 39.3986 21 33.0581 21 26C21 18.9419 22.4326 12.6014 24.702 8.06244C27.0014 3.46367 29.993 1 33 1C36.007 1 38.9986 3.46367 41.298 8.06244C43.5674 12.6014 45 18.9419 45 26Z" stroke="#FFB106" stroke-width="2"/>
<line y1="25" x2="52" y2="25" stroke="#FFB106" stroke-width="2"/>
</svg>
