<svg width="63" height="63" viewBox="0 0 63 63" fill="none" xmlns="http://www.w3.org/2000/svg">
<path d="M28.4321 10.4988H10.3387C8.96763 10.4988 7.65274 11.0434 6.68326 12.0129C5.71378 12.9824 5.16913 14.2973 5.16913 15.6683V51.8552C5.16913 53.2263 5.71378 54.5412 6.68326 55.5107C7.65274 56.4801 8.96763 57.0248 10.3387 57.0248H46.5256C47.8966 57.0248 49.2115 56.4801 50.181 55.5107C51.1505 54.5412 51.6951 53.2263 51.6951 51.8552V33.7618" stroke="#00D559" stroke-width="1.88801" stroke-linecap="round" stroke-linejoin="round"/>
<path d="M47.8179 6.62154C48.8462 5.59325 50.2409 5.01556 51.6951 5.01556C53.1493 5.01556 54.544 5.59325 55.5723 6.62154C56.6005 7.64983 57.1782 9.04449 57.1782 10.4987C57.1782 11.9529 56.6005 13.3476 55.5723 14.3759L31.0169 38.9313L20.6777 41.5161L23.2625 31.1769L47.8179 6.62154Z" stroke="#00D559" stroke-width="1.88801" stroke-linecap="round" stroke-linejoin="round"/>
</svg>
