<svg width="26" height="25" viewBox="0 0 26 25" fill="none" xmlns="http://www.w3.org/2000/svg">
<path d="M13.1519 22.731C18.8559 22.731 23.4796 18.1073 23.4796 12.4034C23.4796 6.69939 18.8559 2.07568 13.1519 2.07568C7.44792 2.07568 2.82422 6.69939 2.82422 12.4034C2.82422 18.1073 7.44792 22.731 13.1519 22.731Z" stroke="#2532A0" stroke-width="0.922899" stroke-linecap="round" stroke-linejoin="round"/>
<path d="M9.0209 3.1084H10.0537C8.03981 9.14138 8.03981 15.6652 10.0537 21.6982H9.0209M16.2503 3.1084C18.2641 9.14138 18.2641 15.6652 16.2503 21.6982" stroke="#2532A0" stroke-width="0.922899" stroke-linecap="round" stroke-linejoin="round"/>
<path d="M3.85699 16.5345V15.5017C9.88998 17.5155 16.4138 17.5155 22.4468 15.5017V16.5345M3.85699 9.30508C9.88998 7.29121 16.4138 7.29121 22.4468 9.30508" stroke="#2532A0" stroke-width="0.922899" stroke-linecap="round" stroke-linejoin="round"/>
</svg>
