<svg width="31" height="44" viewBox="0 0 31 44" fill="none" xmlns="http://www.w3.org/2000/svg">
<g clip-path="url(#clip0_645_4)">
<path d="M30.5664 29.8742C30.8388 30.8469 30.9766 31.8567 30.9766 32.8755C30.9766 34.1592 30.759 35.4198 30.3281 36.6202C29.9121 37.7802 29.3092 38.8593 28.5353 39.827C27.7689 40.784 26.8555 41.6066 25.8217 42.269C24.7688 42.9447 23.6188 43.4356 22.4039 43.7301L21.0521 44.0411C20.6743 44.1286 20.2907 43.9207 20.162 43.5569L19.9893 43.0751L19.7302 42.3532L18.6416 38.3618C18.4116 37.7175 17.8453 37.4692 17.1586 37.4692H-0.122925V30.8741H13.4319C13.4651 30.8741 13.4967 30.8741 13.529 30.8733L15.6157 30.8774C16.1862 30.8774 16.6952 31.2346 16.887 31.7692L16.9991 32.1842L18.1508 36.4577C18.4107 37.1812 18.9239 37.5896 19.682 37.4378L20.6552 37.2637C21.1609 37.1614 21.6417 36.9758 22.0851 36.7102C22.521 36.4478 22.9063 36.117 23.2318 35.7259C23.5598 35.3324 23.8156 34.8927 23.9908 34.4158C24.1718 33.9233 24.264 33.4052 24.264 32.8739C24.264 32.2683 24.1452 31.6818 23.911 31.1307C23.6835 30.5977 23.358 30.1184 22.9437 29.7059C22.5302 29.2942 22.0469 28.9716 21.5113 28.7456C20.9566 28.5121 20.3662 28.3941 19.7568 28.3941H16.4627C16.1862 28.3941 15.9404 28.2217 15.8458 27.9626L14.5163 22.9821C14.3013 22.3807 13.7242 21.9022 13.0823 21.9022H-0.107148V15.2064H10.896C11.5893 15.2064 12.4189 15.5793 12.6505 16.2286L12.7784 16.5842L13.9824 21.0021C14.1161 21.3766 14.2639 21.6885 14.6641 21.6885H19.7559C20.3654 21.6885 20.9558 21.5705 21.5105 21.3379C22.0469 21.1118 22.5293 20.7884 22.9428 20.3776C23.3572 19.9659 23.6835 19.4857 23.9102 18.9528C24.1452 18.4017 24.2631 17.8151 24.2631 17.2095C24.2631 16.604 24.1444 16.0174 23.9102 15.4663C23.6827 14.9334 23.3572 14.454 22.9428 14.0415C22.5293 13.6298 22.0461 13.3073 21.5105 13.0812C20.9558 12.8477 20.3654 12.7298 19.7559 12.7298L12.6497 12.7685C12.1922 12.7685 11.7845 12.4823 11.6308 12.0549L11.3718 11.3297L10.3322 7.46789C10.328 7.45139 10.3222 7.43407 10.3164 7.41756C10.1378 6.93741 9.79408 6.63381 9.2751 6.63381H-0.122925V-0.0544962H1.25464V-0.0610962H7.02482C7.70572 -0.0610962 8.31271 0.364606 8.54106 1.00233L8.67641 1.37936L9.81816 5.55883C9.81982 5.56626 9.82231 5.57368 9.8248 5.58111C9.92528 5.86491 9.97011 6.03733 10.2765 6.03733H19.7302C20.4916 6.03733 21.2539 6.11323 21.9946 6.26421C22.7186 6.41106 23.4294 6.63051 24.1095 6.91679C24.7755 7.19646 25.4198 7.54297 26.021 7.94722C26.6155 8.34652 27.1752 8.80605 27.6842 9.31012C28.1924 9.81585 28.6541 10.3719 29.056 10.9626C29.462 11.5599 29.8108 12.1985 30.0931 12.8618C30.3804 13.5374 30.6013 14.2436 30.7499 14.9631C30.901 15.699 30.9783 16.4563 30.9783 17.2128C30.9783 17.9694 30.901 18.7259 30.7499 19.4626C30.6013 20.1804 30.3804 20.8882 30.0931 21.5639C29.6131 22.69 28.9547 23.7254 28.1334 24.6412C28.0097 24.7798 27.8835 24.9134 27.7531 25.0446C28.3867 25.6865 28.9439 26.4026 29.408 27.1797C29.9129 28.0245 30.3023 28.9312 30.5672 29.8758L30.5664 29.8742Z" fill="white"/>
</g>
<defs>
<clipPath id="clip0_645_4">
<rect width="31" height="44" fill="white"/>
</clipPath>
</defs>
</svg>
